#!OML:ASF H:\Dans Jumps\Project 1\Capture day 1\Session 1\subject.ASF
:FULLY-SPECIFIED
:DEGREES
275
root 0.116548 21.3712 -0.642825 7.45652 0.122254 -1.7464
lowerback 8.95437 0.502377 -2.05656
upperback 4.25603 0.520143 1.24833
thorax -0.638944 0.221851 2.39663
lowerneck -7.73818 0.277512 -1.82283
upperneck 23.7553 0.362121 1.44378
head 8.65367 0.15491 0.832034
rclavicle 5.93248e-016 7.45443e-017
rhumerus -32.5537 -13.762 -76.8966
rradius 28.0415
rwrist 36.7824
rhand -17.1218 -24.8607
rfingers 7.12502
rthumb 9.11785 -54.6436
lclavicle 5.93248e-016 7.45443e-017
lhumerus -37.2585 5.82773 79.5331
lradius 11.0643
lwrist -0.183247
lhand -22.8249 -6.73583
lfingers 7.12502
lthumb 3.61216 23.2133
rfemur -37.3424 -7.10512 21.5245
rtibia 54.6013
rfoot 10.5596 -2.10496
rtoes 14.4435
lfemur -38.0299 9.67266 -18.5557
ltibia 46.5117
lfoot 5.81489 0.177389
ltoes -2.47896
276
root 0.115868 21.2667 -0.434228 7.48411 -0.00684422 -1.81139
lowerback 9.27063 0.514418 -2.01989
upperback 4.30243 0.533301 1.23867
thorax -0.764881 0.22989 2.36349
lowerneck -7.77482 0.304552 -1.71211
upperneck 23.791 0.380292 1.44446
head 8.67255 0.17275 0.815489
rclavicle -2.07481e-015 -3.37934e-015
rhumerus -33.0958 -13.6124 -77.0966
rradius 28.3463
rwrist 36.363
rhand -17.2546 -24.9448
rfingers 7.12502
rthumb 8.9897 -54.7333
lclavicle -2.07481e-015 -3.37934e-015
lhumerus -38.1776 5.70971 79.9985
lradius 10.9219
lwrist -0.120392
lhand -22.5128 -6.51526
lfingers 7.12502
lthumb 3.91358 23.4285
rfemur -38.2118 -7.10465 21.783
rtibia 52.214
rfoot 10.1379 -2.02909
rtoes 13.2556
lfemur -38.3217 9.5917 -18.5737
ltibia 43.7411
lfoot 4.32066 0.380149
ltoes -4.85388
277
root 0.114751 21.1519 -0.217654 7.58388 -0.111009 -1.87023
lowerback 9.41531 0.517372 -1.98607
upperback 4.33216 0.53723 1.22662
thorax -0.813321 0.23254 2.33102
lowerneck -7.8147 0.32136 -1.61117
upperneck 23.8249 0.384051 1.45308
head 8.69167 0.183836 0.801914
rclavicle 1.36664e-015 -6.16232e-015
rhumerus -33.6813 -13.4932 -77.2826
rradius 28.6629
rwrist 35.9158
rhand -17.3966 -25.0333
rfingers 7.12502
rthumb 8.85264 -54.8276
lclavicle 1.36664e-015 -6.16232e-015
lhumerus -39.0865 5.476 80.5417
lradius 10.7908
lwrist 0.00582435
lhand -22.2472 -6.40289
lfingers 7.12502
lthumb 4.17004 23.536
rfemur -38.9974 -7.11148 22.0342
rtibia 49.5793
rfoot 9.85022 -2.04922
rtoes 11.9077
lfemur -38.5627 9.4661 -18.5773
ltibia 40.8484
lfoot 3.00107 0.748157
ltoes -7.3819
278
root 0.113571 21.0271 0.00759225 7.73421 -0.197279 -1.91917
lowerback 9.39389 0.511139 -1.95456
upperback 4.35481 0.531556 1.21011
thorax -0.777487 0.229504 2.29689
lowerneck -7.87005 0.331819 -1.51223
upperneck 23.8691 0.380494 1.45706
head 8.7174 0.190916 0.786547
rclavicle -7.59109e-015 -9.44227e-015
rhumerus -34.2897 -13.3836 -77.4662
rradius 28.9738
rwrist 35.4677
rhand -17.5505 -25.1299
rfingers 7.12502
rthumb 8.70413 -54.9304
lclavicle -7.59109e-015 -9.44227e-015
lhumerus -39.9756 5.17805 81.137
lradius 10.6692
lwrist 0.141148
lhand -21.9924 -6.33642
lfingers 7.12502
lthumb 4.41611 23.5975
rfemur -39.6718 -7.11025 22.2541
rtibia 46.7313
rfoot 9.75374 -2.11292
rtoes 10.4837
lfemur -38.7322 9.31341 -18.572
ltibia 37.8907
lfoot 1.88066 1.21158
ltoes -9.90496
279
root 0.112025 20.891 0.241136 7.90908 -0.277132 -1.95911
lowerback 9.22956 0.501175 -1.92704
upperback 4.37341 0.522869 1.19014
thorax -0.667354 0.224161 2.26232
lowerneck -7.93079 0.334078 -1.42569
upperneck 23.9272 0.367476 1.46142
head 8.74906 0.192566 0.772616
rclavicle -3.2551e-015 -5.01931e-015
rhumerus -34.9222 -13.2671 -77.6498
rradius 29.2744
rwrist 35.0378
rhand -17.7184 -25.2364
rfingers 7.12502
rthumb 8.54211 -55.0437
lclavicle -3.2551e-015 -5.01931e-015
lhumerus -40.8406 4.88858 81.7348
lradius 10.5528
lwrist 0.187072
lhand -21.7162 -6.29678
lfingers 7.12502
lthumb 4.68279 23.6315
rfemur -40.2179 -7.06182 22.4222
rtibia 43.7252
rfoot 9.86832 -2.16254
rtoes 9.03071
lfemur -38.8186 9.16898 -18.5623
ltibia 34.9368
lfoot 0.91347 1.69007
ltoes -12.268
280
root 0.110396 20.7428 0.48315 8.07132 -0.366114 -1.98871
lowerback 8.95544 0.491258 -1.90169
upperback 4.396 0.515665 1.16339
thorax -0.492856 0.218863 2.22233
lowerneck -8.00222 0.328695 -1.36161
upperneck 24.0153 0.344757 1.47757
head 8.79318 0.188918 0.7658
rclavicle 1.71452e-015 -6.21202e-015
rhumerus -35.5572 -13.1419 -77.8415
rradius 29.541
rwrist 34.6428
rhand -17.9075 -25.3418
rfingers 7.12502
rthumb 8.35964 -55.1564
lclavicle 1.71452e-015 -6.21202e-015
lhumerus -41.6656 4.68166 82.2727
lradius 10.424
lwrist 0.0613232
lhand -21.4157 -6.26601
lfingers 7.12502
lthumb 4.97299 23.6556
rfemur -40.6101 -6.93444 22.5123
rtibia 40.6331
rfoot 10.1656 -2.13744
rtoes 7.57963
lfemur -38.8019 9.06445 -18.5575
ltibia 32.0641
lfoot -0.0246989 2.11452
ltoes -14.4137
281
root 0.108803 20.5814 0.732887 8.19121 -0.463375 -2.00263
lowerback 8.60568 0.482385 -1.87634
upperback 4.42296 0.510865 1.12721
thorax -0.272239 0.214365 2.17277
lowerneck -8.08374 0.31943 -1.3137
upperneck 24.1534 0.317758 1.49944
head 8.85651 0.182459 0.763634
rclavicle -5.96354e-015 -6.41081e-015
rhumerus -36.198 -13.0163 -78.0347
rradius 29.7672
rwrist 34.2899
rhand -18.0906 -25.4482
rfingers 7.12502
rthumb 8.18294 -55.2697
lclavicle -5.96354e-015 -6.41081e-015
lhumerus -42.4409 4.60071 82.7022
lradius 10.2794
lwrist -0.280935
lhand -21.0513 -6.17655
lfingers 7.12502
lthumb 5.32482 23.7365
rfemur -40.8414 -6.7214 22.5044
rtibia 37.5459
rfoot 10.5566 -2.00563
rtoes 6.17638
lfemur -38.6811 9.01207 -18.5702
ltibia 29.3567
lfoot -1.05615 2.43874
ltoes -16.2351
282
root 0.107474 20.4058 0.989853 8.23688 -0.571916 -1.99809
lowerback 8.21789 0.478443 -1.8468
upperback 4.45465 0.513342 1.0792
thorax -0.0258577 0.213462 2.10834
lowerneck -8.16329 0.307923 -1.28485
upperneck 24.3525 0.288329 1.53011
head 8.94076 0.174104 0.767877
rclavicle -2.28602e-015 -1.2921e-015
rhumerus -36.8342 -12.9237 -78.2171
rradius 29.9306
rwrist 33.9833
rhand -18.2706 -25.5522
rfingers 7.12502
rthumb 8.00919 -55.3804
lclavicle -2.28602e-015 -1.2921e-015
lhumerus -43.1599 4.67817 82.9726
lradius 10.0966
lwrist -0.884919
lhand -20.6506 -6.08989
lfingers 7.12502
lthumb 5.71167 23.8131
rfemur -40.9087 -6.43252 22.3959
rtibia 34.5691
rfoot 10.891 -1.76138
rtoes 4.76255
lfemur -38.4512 9.01015 -18.6021
ltibia 26.8966
lfoot -2.27273 2.6443
ltoes -17.7671
283
root 0.10698 20.2163 1.25342 8.18836 -0.688021 -1.98329
lowerback 7.80375 0.48088 -1.79523
upperback 4.50074 0.526028 1.02015
thorax 0.249908 0.217858 2.01977
lowerneck -8.24857 0.29762 -1.25559
upperneck 24.6099 0.261789 1.55354
head 9.04663 0.166511 0.770317
rclavicle -4.72114e-016 -2.08724e-015
rhumerus -37.4533 -12.8787 -78.3794
rradius 30.0281
rwrist 33.7053
rhand -18.4351 -25.6475
rfingers 7.12502
rthumb 7.85044 -55.4818
lclavicle -4.72114e-016 -2.08724e-015
lhumerus -43.8211 5.24813 82.7402
lradius 9.86068
lwrist -2.19015
lhand -20.1458 -6.02123
lfingers 7.12502
lthumb 6.1991 23.8681
rfemur -40.8261 -6.12162 22.2217
rtibia 31.8159
rfoot 11.0311 -1.4273
rtoes 3.38175
lfemur -38.1171 9.03274 -18.6339
ltibia 24.7564
lfoot -3.68265 2.75668
ltoes -19.1319
